<svg width="30" height="26" viewBox="0 0 30 26" fill="none" xmlns="http://www.w3.org/2000/svg">
<path d="M21.3433 10.061H20.2863C20.0126 10.061 19.7907 10.2955 19.7907 10.5848C19.7907 10.874 20.0125 11.1085 20.2863 11.1085H21.3433C21.617 11.1085 21.8389 10.874 21.8389 10.5848C21.8388 10.2955 21.617 10.061 21.3433 10.061Z" fill="#EE3D48"/>
<path fill-rule="evenodd" clip-rule="evenodd" d="M22.0708 10.5848C22.0708 11.0094 21.745 11.3536 21.3433 11.3536H20.2863C19.8844 11.3536 19.5588 11.0093 19.5588 10.5848C19.5588 10.1601 19.8845 9.81594 20.2863 9.81594H21.3433C21.7451 9.81594 22.0707 10.1602 22.0708 10.5848ZM21.8389 10.5848C21.8389 10.874 21.617 11.1085 21.3433 11.1085H20.2863C20.0125 11.1085 19.7907 10.874 19.7907 10.5848C19.7907 10.2955 20.0126 10.061 20.2863 10.061H21.3433C21.617 10.061 21.8388 10.2955 21.8389 10.5848Z" fill="#EE3D48"/>
<path d="M21.4736 14.3877C21.2781 14.1232 20.9838 13.9714 20.6663 13.9714H9.33368C9.0161 13.9714 8.7219 14.1232 8.52639 14.3877C8.33095 14.6523 8.26299 14.9907 8.34006 15.3163L8.60439 16.4336C8.71861 16.9163 9.12721 17.2534 9.598 17.2534H20.402C20.8728 17.2534 21.2813 16.9163 21.3956 16.4336L21.6599 15.3163C21.737 14.9906 21.669 14.6522 21.4736 14.3877ZM20.6983 15.0623L20.434 16.1795C20.4303 16.1952 20.4172 16.206 20.402 16.206H9.598C9.58283 16.206 9.56956 16.1951 9.56593 16.1796L9.3016 15.0623C9.30039 15.0574 9.29768 15.0458 9.3076 15.0324C9.31752 15.019 9.32883 15.019 9.33362 15.019H20.6663C20.6711 15.019 20.6824 15.019 20.6923 15.0324C20.7022 15.0458 20.6996 15.0573 20.6983 15.0623Z" fill="#EE3D48"/>
<path fill-rule="evenodd" clip-rule="evenodd" d="M8.34361 14.2368C8.58305 13.9129 8.94466 13.7263 9.33368 13.7263H20.6663C21.0553 13.7263 21.417 13.9128 21.6564 14.2369C21.8957 14.5609 21.9793 14.9768 21.8849 15.3757L21.6206 16.493C21.4805 17.0848 20.9792 17.4985 20.402 17.4985H9.598C9.02079 17.4985 8.51943 17.0849 8.37939 16.4931L8.11507 15.3758C8.02066 14.9769 8.10425 14.5609 8.34361 14.2368ZM8.60439 16.4336L8.34006 15.3163C8.26299 14.9907 8.33095 14.6523 8.52639 14.3877C8.7219 14.1232 9.0161 13.9714 9.33368 13.9714H20.6663C20.9838 13.9714 21.2781 14.1232 21.4736 14.3877C21.669 14.6522 21.737 14.9906 21.6599 15.3163L21.3956 16.4336C21.2813 16.9163 20.8728 17.2534 20.402 17.2534H9.598C9.12721 17.2534 8.71861 16.9163 8.60439 16.4336ZM9.33362 15.019C9.32883 15.019 9.31752 15.019 9.3076 15.0324C9.29768 15.0458 9.30039 15.0574 9.3016 15.0623L9.56593 16.1796C9.56956 16.1951 9.58283 16.206 9.598 16.206H20.402C20.4172 16.206 20.4303 16.1952 20.434 16.1795L20.6983 15.0623C20.6996 15.0573 20.7022 15.0458 20.6923 15.0324C20.6824 15.019 20.6711 15.019 20.6663 15.019H9.33362ZM20.4115 15.2641H9.5884L9.75325 15.9609H20.2467L20.4115 15.2641Z" fill="#EE3D48"/>
<path d="M28.2153 11.1085C29.0715 11.1085 29.7681 10.3723 29.7681 9.4675C29.7681 8.56268 29.0715 7.82654 28.2153 7.82654H27.6867C26.9147 7.82654 26.2726 8.4252 26.1538 9.20621L24.8317 5.36409C24.5338 4.49798 23.7477 3.91614 22.8757 3.91614H19.1065L18.8275 2.44222C18.683 1.6778 18.0425 1.12303 17.3049 1.12303H12.695C11.9574 1.12303 11.317 1.6778 11.1724 2.44222L10.8934 3.91614H7.12429C6.25228 3.91614 5.46617 4.49804 5.16821 5.36403L3.84624 9.20615C3.72746 8.4252 3.0854 7.82654 2.31336 7.82654H1.78477C0.928507 7.82654 0.231927 8.56268 0.231927 9.4675C0.231927 10.3723 0.928508 11.1085 1.78471 11.1085H2.3133C2.55738 11.1085 2.78836 11.0485 2.99408 10.942L1.86109 12.4387C1.49223 12.9259 1.28911 13.5378 1.28911 14.1617V24.5505C1.28911 25.1473 1.74854 25.6328 2.3133 25.6328H3.89914C4.4639 25.6328 4.92333 25.1473 4.92333 24.5505V22.281H25.0766V24.5505C25.0766 25.1473 25.536 25.6328 26.1008 25.6328H27.6866C28.2514 25.6328 28.7108 25.1473 28.7108 24.5505V14.1617C28.7108 13.5378 28.5077 12.9259 28.1389 12.4387L27.0059 10.942C27.2116 11.0485 27.4426 11.1085 27.6866 11.1085H28.2153ZM2.31336 10.061H1.78477C1.47504 10.061 1.22312 9.79482 1.22312 9.4675C1.22312 9.14019 1.47504 8.87396 1.78477 8.87396H2.31336C2.62309 8.87396 2.87501 9.14019 2.87501 9.4675C2.87501 9.79475 2.62303 10.061 2.31336 10.061ZM12.1443 2.64755C12.1966 2.37108 12.4282 2.17039 12.695 2.17039H17.3049C17.5717 2.17039 17.8033 2.37108 17.8556 2.64755L18.0957 3.91614H11.9042L12.1443 2.64755ZM3.9322 24.5505C3.9322 24.5697 3.91737 24.5854 3.89914 24.5854H2.3133C2.29507 24.5854 2.28025 24.5697 2.28025 24.5505V21.9542C2.59753 22.1612 2.971 22.281 3.37049 22.281H3.93214L3.9322 24.5505ZM20.8478 21.2336H9.15225V20.0815C9.15225 20.0622 9.16707 20.0465 9.1853 20.0465H20.8148C20.833 20.0465 20.8478 20.0622 20.8478 20.0815L20.8478 21.2336ZM27.7197 24.5505C27.7197 24.5697 27.7049 24.5854 27.6866 24.5854H26.1008C26.0826 24.5854 26.0677 24.5697 26.0677 24.5505V22.281H26.6294C27.0289 22.281 27.4024 22.1612 27.7196 21.9542L27.7197 24.5505ZM27.365 13.093C27.5937 13.3952 27.7198 13.7748 27.7198 14.1618V20.0815C27.7198 20.7168 27.2307 21.2336 26.6295 21.2336H21.8389V20.0815C21.8389 19.4846 21.3795 18.9991 20.8147 18.9991H9.1853C8.62054 18.9991 8.16111 19.4846 8.16111 20.0815V21.2336H3.37055C2.76938 21.2336 2.28031 20.7168 2.28031 20.0815V14.1618C2.28031 13.7748 2.4063 13.3952 2.63509 13.093L4.13733 11.1085H18.1717C18.4453 11.1085 18.6673 10.874 18.6673 10.5847C18.6673 10.2955 18.4454 10.061 18.1717 10.061H4.60674L6.09981 5.72189C6.25586 5.26826 6.66763 4.9635 7.12441 4.9635H22.8757C23.3325 4.9635 23.7442 5.26832 23.9003 5.72189L25.3934 10.061H23.4579C23.1842 10.061 22.9623 10.2955 22.9623 10.5847C22.9623 10.8739 23.1842 11.1085 23.4579 11.1085H25.8628L27.365 13.093ZM27.125 9.4675C27.125 9.14019 27.3769 8.87396 27.6866 8.87396H28.2152C28.525 8.87396 28.7769 9.14019 28.7769 9.4675C28.7769 9.79482 28.525 10.061 28.2152 10.061H27.6866C27.377 10.061 27.125 9.79475 27.125 9.4675Z" fill="#EE3D48"/>
<path fill-rule="evenodd" clip-rule="evenodd" d="M11.1724 2.44222C11.317 1.6778 11.9574 1.12303 12.695 1.12303H17.3049C18.0425 1.12303 18.683 1.6778 18.8275 2.44222L19.1065 3.91614H22.8757C23.7477 3.91614 24.5338 4.49798 24.8317 5.36409L26.1538 9.20621C26.1748 9.06764 26.2124 8.93481 26.2642 8.81005C26.5045 8.23162 27.0516 7.82654 27.6867 7.82654H28.2153C29.0715 7.82654 29.7681 8.56268 29.7681 9.4675C29.7681 10.3723 29.0715 11.1085 28.2153 11.1085H27.6866C27.5919 11.1085 27.4991 11.0994 27.409 11.0821C27.267 11.0549 27.1317 11.0071 27.0059 10.942L28.1389 12.4387C28.5077 12.9259 28.7108 13.5378 28.7108 14.1617V24.5505C28.7108 25.1473 28.2514 25.6328 27.6866 25.6328H26.1008C25.536 25.6328 25.0766 25.1473 25.0766 24.5505V22.281H4.92333V24.5505C4.92333 25.1473 4.4639 25.6328 3.89914 25.6328H2.3133C1.74854 25.6328 1.28911 25.1473 1.28911 24.5505V14.1617C1.28911 13.5378 1.49223 12.9259 1.86109 12.4387L2.99408 10.942C2.86824 11.0071 2.73294 11.0549 2.59098 11.0821C2.50087 11.0994 2.40807 11.1085 2.3133 11.1085H1.78471C0.928508 11.1085 0.231927 10.3723 0.231927 9.4675C0.231927 8.56268 0.928507 7.82654 1.78477 7.82654H2.31336C2.9484 7.82654 3.4955 8.23159 3.73577 8.80996C3.78761 8.93473 3.82516 9.06757 3.84624 9.20615L5.16821 5.36403C5.46617 4.49804 6.25228 3.91614 7.12429 3.91614H10.8934L11.1724 2.44222ZM10.7033 3.67104L10.9449 2.39416C11.1113 1.51518 11.8468 0.87793 12.695 0.87793H17.3049C18.153 0.87793 18.8887 1.51513 19.0549 2.39415L19.2966 3.67104H22.8757C23.8452 3.67104 24.7184 4.31736 25.0497 5.28033L26.1567 8.49758C26.469 7.94913 27.0377 7.58144 27.6867 7.58144H28.2153C29.1996 7.58144 30 8.42731 30 9.4675C30 10.5077 29.1996 11.3536 28.2153 11.3536H27.6866C27.6621 11.3536 27.6376 11.353 27.6132 11.352L28.3199 12.2856C28.7217 12.8162 28.9428 13.4822 28.9428 14.1617V24.5505C28.9428 25.2827 28.3795 25.8779 27.6866 25.8779H26.1008C25.4079 25.8779 24.8447 25.2827 24.8447 24.5505V22.5261H5.15526V24.5505C5.15526 25.2827 4.59199 25.8779 3.89914 25.8779H2.3133C1.62045 25.8779 1.05719 25.2827 1.05719 24.5505V14.1617C1.05719 13.4821 1.27823 12.8163 1.67998 12.2856L2.3867 11.352C2.36235 11.353 2.33788 11.3536 2.3133 11.3536H1.78471C0.800417 11.3536 0 10.5077 0 9.4675C0 8.42731 0.800423 7.58144 1.78477 7.58144H2.31336C2.96238 7.58144 3.53098 7.9491 3.84329 8.49749L4.95025 5.28028C5.28153 4.31742 6.15476 3.67104 7.12429 3.67104H10.7033ZM17.6282 2.69556C17.5976 2.5337 17.4612 2.41548 17.3049 2.41548H12.695C12.5388 2.41548 12.4024 2.53368 12.3717 2.69562L12.1871 3.67104H17.8128L17.6282 2.69556ZM18.0957 3.91614H11.9042L12.1443 2.64755C12.1966 2.37108 12.4282 2.17039 12.695 2.17039H17.3049C17.5717 2.17039 17.8033 2.37108 17.8556 2.64755L18.0957 3.91614ZM3.70021 24.3403V22.5261H3.37049C3.06746 22.5261 2.77772 22.464 2.51218 22.3514V24.3403H3.70021ZM2.28025 24.5505C2.28025 24.5697 2.29507 24.5854 2.3133 24.5854H3.89914C3.91671 24.5854 3.93112 24.5709 3.93214 24.5526L3.9322 24.5505L3.93214 22.281H3.37049C3.06462 22.281 2.774 22.2108 2.51218 22.0849C2.43204 22.0464 2.3546 22.0027 2.28025 21.9542V24.5505ZM27.4877 24.3403V22.3514C27.2222 22.464 26.9324 22.5261 26.6294 22.5261H26.2997V24.3403H27.4877ZM27.4877 22.0849C27.5678 22.0464 27.6453 22.0027 27.7196 21.9542L27.7197 24.5505L27.7196 24.5526C27.7186 24.5709 27.7042 24.5854 27.6866 24.5854H26.1008C26.0826 24.5854 26.0677 24.5697 26.0677 24.5505V22.281H26.6294C26.9353 22.281 27.2259 22.2108 27.4877 22.0849ZM2.63509 13.093C2.4063 13.3952 2.28031 13.7748 2.28031 14.1618V20.0815C2.28031 20.7168 2.76938 21.2336 3.37055 21.2336H8.16111V20.0815C8.16111 19.4846 8.62054 18.9991 9.1853 18.9991H20.8147C21.3795 18.9991 21.8389 19.4846 21.8389 20.0815V21.2336H26.6295C27.2307 21.2336 27.7198 20.7168 27.7198 20.0815V14.1618C27.7198 13.7748 27.5937 13.3952 27.365 13.093L25.8628 11.1085H23.4579C23.1842 11.1085 22.9623 10.8739 22.9623 10.5847C22.9623 10.2955 23.1842 10.061 23.4579 10.061H25.3934L23.9003 5.72189C23.7442 5.26832 23.3325 4.9635 22.8757 4.9635H7.12441C6.66763 4.9635 6.25586 5.26826 6.09981 5.72189L4.60674 10.061H18.1717C18.4454 10.061 18.6673 10.2955 18.6673 10.5847C18.6673 10.874 18.4453 11.1085 18.1717 11.1085H4.13733L2.63509 13.093ZM4.24881 11.3536L2.81619 13.2461C2.62031 13.5049 2.51223 13.8304 2.51223 14.1618V20.0815C2.51223 20.5814 2.89747 20.9885 3.37055 20.9885H7.92919V20.0815C7.92919 19.3493 8.49245 18.754 9.1853 18.754H20.8147C21.5076 18.754 22.0708 19.3493 22.0708 20.0815V20.9885H26.6295C27.1026 20.9885 27.4878 20.5814 27.4878 20.0815V14.1618C27.4878 13.8305 27.3797 13.5049 27.1839 13.2461L25.7513 11.3536H23.4579C23.0561 11.3536 22.7304 11.0093 22.7304 10.5847C22.7304 10.1601 23.0562 9.81588 23.4579 9.81588H25.0623L23.6823 5.80566C23.5596 5.44893 23.2349 5.2086 22.8757 5.2086H7.12441C6.76514 5.2086 6.4405 5.4489 6.31779 5.80563L4.93786 9.81588H18.1717C18.5735 9.81588 18.8992 10.1602 18.8992 10.5847C18.8992 11.0094 18.5734 11.3536 18.1717 11.3536H4.24881ZM1.78477 9.81595H2.31336C2.49494 9.81595 2.64308 9.65939 2.64308 9.4675C2.64308 9.27555 2.495 9.11906 2.31336 9.11906H1.78477C1.60313 9.11906 1.45505 9.27555 1.45505 9.4675C1.45505 9.65945 1.60313 9.81595 1.78477 9.81595ZM9.38418 20.9885H20.6159V20.2916H9.38418V20.9885ZM27.6866 9.11906C27.505 9.11906 27.3569 9.27555 27.3569 9.4675C27.3569 9.65939 27.5051 9.81595 27.6866 9.81595H28.2152C28.3969 9.81595 28.545 9.65945 28.545 9.4675C28.545 9.27555 28.3969 9.11906 28.2152 9.11906H27.6866ZM1.78477 10.061H2.31336C2.62303 10.061 2.87501 9.79475 2.87501 9.4675C2.87501 9.14019 2.62309 8.87396 2.31336 8.87396H1.78477C1.47504 8.87396 1.22312 9.14019 1.22312 9.4675C1.22312 9.79482 1.47504 10.061 1.78477 10.061ZM20.8478 21.2336L20.8478 20.0815C20.8478 20.0622 20.833 20.0465 20.8148 20.0465H9.1853C9.16707 20.0465 9.15225 20.0622 9.15225 20.0815V21.2336H20.8478ZM27.6866 8.87396C27.3769 8.87396 27.125 9.14019 27.125 9.4675C27.125 9.79475 27.377 10.061 27.6866 10.061H28.2152C28.525 10.061 28.7769 9.79482 28.7769 9.4675C28.7769 9.14019 28.525 8.87396 28.2152 8.87396H27.6866Z" fill="#EE3D48"/>
<path d="M5.48496 17.8818C4.92019 17.8818 4.46077 18.3673 4.46077 18.9642C4.46077 19.561 4.92019 20.0465 5.48496 20.0465C6.04972 20.0465 6.50915 19.561 6.50915 18.9642C6.50915 18.3673 6.04972 17.8818 5.48496 17.8818Z" fill="#EE3D48"/>
<path fill-rule="evenodd" clip-rule="evenodd" d="M4.22884 18.9642C4.22884 18.232 4.7921 17.6367 5.48496 17.6367C6.17781 17.6367 6.74107 18.232 6.74107 18.9642C6.74107 19.6964 6.17781 20.2916 5.48496 20.2916C4.7921 20.2916 4.22884 19.6964 4.22884 18.9642ZM4.46077 18.9642C4.46077 18.3673 4.92019 17.8818 5.48496 17.8818C6.04972 17.8818 6.50915 18.3673 6.50915 18.9642C6.50915 19.561 6.04972 20.0465 5.48496 20.0465C4.92019 20.0465 4.46077 19.561 4.46077 18.9642Z" fill="#EE3D48"/>
<path d="M24.515 17.8818C23.9502 17.8818 23.4908 18.3673 23.4908 18.9642C23.4908 19.561 23.9502 20.0465 24.515 20.0465C25.0798 20.0465 25.5392 19.561 25.5392 18.9642C25.5392 18.3673 25.0797 17.8818 24.515 17.8818Z" fill="#EE3D48"/>
<path fill-rule="evenodd" clip-rule="evenodd" d="M23.2589 18.9642C23.2589 18.232 23.8221 17.6367 24.515 17.6367C25.2078 17.6367 25.7711 18.232 25.7711 18.9642C25.7711 19.6964 25.2078 20.2916 24.515 20.2916C23.8221 20.2916 23.2589 19.6964 23.2589 18.9642ZM23.4908 18.9642C23.4908 18.3673 23.9502 17.8818 24.515 17.8818C25.0797 17.8818 25.5392 18.3673 25.5392 18.9642C25.5392 19.561 25.0798 20.0465 24.515 20.0465C23.9502 20.0465 23.4908 19.561 23.4908 18.9642Z" fill="#EE3D48"/>
<path d="M5.22074 13.4128C4.21876 13.4128 3.40363 14.2743 3.40363 15.3331C3.40363 16.392 4.21876 17.2534 5.22074 17.2534C6.22272 17.2534 7.03784 16.392 7.03784 15.3331C7.03784 14.2743 6.22272 13.4128 5.22074 13.4128ZM5.22074 16.206C4.76529 16.206 4.39476 15.8145 4.39476 15.3331C4.39476 14.8517 4.76523 14.4602 5.22074 14.4602C5.67624 14.4602 6.04671 14.8517 6.04671 15.3331C6.04671 15.8145 5.67618 16.206 5.22074 16.206Z" fill="#EE3D48"/>
<path fill-rule="evenodd" clip-rule="evenodd" d="M3.1717 15.3331C3.1717 14.1389 4.09067 13.1677 5.22074 13.1677C6.35081 13.1677 7.26977 14.1389 7.26977 15.3331C7.26977 16.5274 6.35081 17.4985 5.22074 17.4985C4.09067 17.4985 3.1717 16.5274 3.1717 15.3331ZM4.62669 15.3331C4.62669 15.6791 4.89337 15.9609 5.22074 15.9609C5.5481 15.9609 5.81478 15.6791 5.81478 15.3331C5.81478 14.9871 5.54815 14.7053 5.22074 14.7053C4.89332 14.7053 4.62669 14.9871 4.62669 15.3331ZM3.40363 15.3331C3.40363 14.2743 4.21876 13.4128 5.22074 13.4128C6.22272 13.4128 7.03784 14.2743 7.03784 15.3331C7.03784 16.392 6.22272 17.2534 5.22074 17.2534C4.21876 17.2534 3.40363 16.392 3.40363 15.3331ZM4.39476 15.3331C4.39476 15.8145 4.76529 16.206 5.22074 16.206C5.67618 16.206 6.04671 15.8145 6.04671 15.3331C6.04671 14.8517 5.67624 14.4602 5.22074 14.4602C4.76523 14.4602 4.39476 14.8517 4.39476 15.3331Z" fill="#EE3D48"/>
<path d="M24.7793 13.4128C23.7773 13.4128 22.9622 14.2743 22.9622 15.3331C22.9622 16.392 23.7773 17.2534 24.7793 17.2534C25.7813 17.2534 26.5964 16.392 26.5964 15.3331C26.5964 14.2743 25.7813 13.4128 24.7793 13.4128ZM24.7793 16.206C24.3239 16.206 23.9533 15.8145 23.9533 15.3331C23.9533 14.8517 24.3238 14.4602 24.7793 14.4602C25.2348 14.4602 25.6053 14.8517 25.6053 15.3331C25.6053 15.8145 25.2348 16.206 24.7793 16.206Z" fill="#EE3D48"/>
<path fill-rule="evenodd" clip-rule="evenodd" d="M22.7303 15.3331C22.7303 14.1389 23.6493 13.1677 24.7793 13.1677C25.9094 13.1677 26.8284 14.1389 26.8284 15.3331C26.8284 16.5274 25.9094 17.4985 24.7793 17.4985C23.6493 17.4985 22.7303 16.5274 22.7303 15.3331ZM24.1853 15.3331C24.1853 15.6791 24.452 15.9609 24.7793 15.9609C25.1067 15.9609 25.3734 15.6791 25.3734 15.3331C25.3734 14.9871 25.1067 14.7053 24.7793 14.7053C24.4519 14.7053 24.1853 14.9871 24.1853 15.3331ZM22.9622 15.3331C22.9622 14.2743 23.7773 13.4128 24.7793 13.4128C25.7813 13.4128 26.5964 14.2743 26.5964 15.3331C26.5964 16.392 25.7813 17.2534 24.7793 17.2534C23.7773 17.2534 22.9622 16.392 22.9622 15.3331ZM23.9533 15.3331C23.9533 15.8145 24.3239 16.206 24.7793 16.206C25.2348 16.206 25.6053 15.8145 25.6053 15.3331C25.6053 14.8517 25.2348 14.4602 24.7793 14.4602C24.3238 14.4602 23.9533 14.8517 23.9533 15.3331Z" fill="#EE3D48"/>
</svg>
