<svg width="25" height="26" viewBox="0 0 25 26" fill="none" xmlns="http://www.w3.org/2000/svg">
<path d="M21.3379 16.2466H20.4795C20.1771 15.3941 19.363 14.7817 18.4082 14.7817C17.4534 14.7817 16.6393 15.3941 16.3369 16.2466H14.7461C13.9384 16.2466 13.2812 15.5895 13.2812 14.7817C13.2812 13.974 13.9384 13.3169 14.7461 13.3169H19.873C20.1042 13.3169 20.326 13.2035 20.4611 13.021L23.9767 8.28525C24.6461 7.39282 25 6.32988 25 5.21143C25 2.38442 22.7 0.0844727 19.873 0.0844727C17.046 0.0844727 14.7461 2.38442 14.7461 5.21143C14.7461 6.3292 15.0995 7.3915 15.7682 8.28364L18.4172 11.8521H14.7461C13.1307 11.8521 11.8164 13.1663 11.8164 14.7817C11.8164 16.3972 13.1307 17.7114 14.7461 17.7114H16.3369C16.6393 18.5639 17.4534 19.1763 18.4082 19.1763C19.363 19.1763 20.1771 18.5639 20.4795 17.7114H21.3379C22.5495 17.7114 23.5352 18.6971 23.5352 19.9087C23.5352 21.1262 22.529 22.1548 21.3379 22.1548H16.085C15.7826 21.3023 14.9685 20.6899 14.0137 20.6899C13.0588 20.6899 12.2447 21.3023 11.9424 22.1548H6.58281L9.23057 18.588C9.90005 17.6956 10.2539 16.6326 10.2539 15.5142C10.2539 12.6872 7.95395 10.3872 5.12695 10.3872C2.29995 10.3872 0 12.6872 0 15.5142C0 16.6326 0.353857 17.6956 1.02114 18.5851L4.52871 23.3101C4.66089 23.4971 4.88086 23.6197 5.12637 23.6197C5.1291 23.6197 5.13179 23.6197 5.13457 23.6196H11.9424C12.2447 24.4721 13.0588 25.0845 14.0137 25.0845C14.9685 25.0845 15.7826 24.4721 16.085 23.6196H21.3379C22.3163 23.6196 23.238 23.2279 23.9333 22.5167C24.6211 21.8129 25 20.8867 25 19.9087C25 17.8894 23.3572 16.2466 21.3379 16.2466ZM16.9434 7.40918C16.9427 7.4082 16.942 7.40723 16.9412 7.40625C16.4635 6.76938 16.2109 6.0104 16.2109 5.21143C16.2109 3.19214 17.8538 1.54932 19.873 1.54932C21.8923 1.54932 23.5352 3.19214 23.5352 5.21143C23.5352 6.0104 23.2826 6.76938 22.8027 7.40918L19.873 11.3557L16.9434 7.40918ZM18.4082 17.7114C18.0043 17.7114 17.6758 17.3829 17.6758 16.979C17.6758 16.5751 18.0043 16.2466 18.4082 16.2466C18.8121 16.2466 19.1406 16.5751 19.1406 16.979C19.1406 17.3829 18.8121 17.7114 18.4082 17.7114ZM5.12695 21.6584L2.19512 17.709C1.71738 17.0721 1.46484 16.3131 1.46484 15.5142C1.46484 13.4949 3.10767 11.8521 5.12695 11.8521C7.14624 11.8521 8.78906 13.4949 8.78906 15.5142C8.78906 16.3131 8.53652 17.0721 8.05659 17.7119L5.12695 21.6584ZM14.0137 23.6196C13.6098 23.6196 13.2812 23.2911 13.2812 22.8872C13.2812 22.4833 13.6098 22.1548 14.0137 22.1548C14.4175 22.1548 14.7461 22.4833 14.7461 22.8872C14.7461 23.2911 14.4175 23.6196 14.0137 23.6196Z" fill="#EE3D48"/>
</svg>
