<svg width="40" height="24" viewBox="0 0 40 24" fill="none" xmlns="http://www.w3.org/2000/svg">
<path fill-rule="evenodd" clip-rule="evenodd" d="M39.0833 1.91325C39.36 1.00325 39.0833 0.333252 37.7583 0.333252H33.3833C32.27 0.333252 31.7567 0.911585 31.4783 1.54992C31.4783 1.54992 29.2533 6.87659 26.1017 10.3366C25.0817 11.3399 24.6183 11.6583 24.0617 11.6583C23.7833 11.6583 23.365 11.3399 23.365 10.4283V1.91325C23.365 0.819919 23.0583 0.333252 22.1317 0.333252H15.2517C14.5567 0.333252 14.1383 0.839919 14.1383 1.32159C14.1383 2.35659 15.715 2.59659 15.8767 5.50992V11.8399C15.8767 13.2283 15.6217 13.4799 15.065 13.4799C13.5817 13.4799 9.97333 8.12825 7.83167 2.00492C7.41667 0.813252 6.99667 0.333252 5.87833 0.333252H1.5C0.25 0.333252 0 0.911585 0 1.54992C0 2.68659 1.48333 8.33325 6.90833 15.8016C10.525 20.9016 15.6167 23.6666 20.255 23.6666C23.0367 23.6666 23.38 23.0533 23.38 21.9949V18.1399C23.38 16.9116 23.6433 16.6666 24.525 16.6666C25.175 16.6666 26.2867 16.9866 28.8833 19.4449C31.85 22.3599 32.3383 23.6666 34.0083 23.6666H38.3833C39.6333 23.6666 40.26 23.0533 39.9 21.8399C39.5033 20.6333 38.0867 18.8816 36.2083 16.8033C35.1883 15.6199 33.6583 14.3449 33.1933 13.7066C32.545 12.8883 32.73 12.5233 33.1933 11.7949C33.1933 11.7949 38.5267 4.41825 39.0817 1.91325H39.0833Z" fill="#4E4E4E"/>
</svg>
