<svg width="30" height="26" viewBox="0 0 30 26" xmlns="http://www.w3.org/2000/svg">
<path d="M26.5502 2.6298C25.8534 1.93302 25.0262 1.38039 24.1157 1.00347C23.2053 0.626549 22.2295 0.432736 21.2441 0.433106C20.2587 0.433476 19.2831 0.628021 18.3729 1.00562C17.4627 1.38323 16.6359 1.93649 15.9396 2.63378L15.0308 3.5537L14.1295 2.63577L14.1236 2.62991C13.4272 1.93347 12.6004 1.38102 11.6905 1.0041C10.7805 0.62719 9.80525 0.433195 8.82033 0.433195C7.83541 0.433195 6.86014 0.62719 5.95019 1.0041C5.04024 1.38102 4.21345 1.93347 3.51701 2.62991L3.11213 3.0348C1.70561 4.44132 0.915436 6.34897 0.915436 8.33809C0.915436 10.3272 1.70561 12.2349 3.11213 13.6414L13.798 24.3272L15.0048 25.5915L15.0336 25.5627L15.0648 25.5939L16.1954 24.401L26.9551 13.6412C28.3595 12.2336 29.1482 10.3263 29.1482 8.33791C29.1482 6.34949 28.3595 4.44226 26.9551 3.03462L26.5502 2.6298ZM25.629 12.3154L15.0336 22.9111L4.43787 12.3154C3.38298 11.2605 2.79036 9.82978 2.79036 8.33794C2.79036 6.84611 3.38298 5.41537 4.43787 4.36048L4.84281 3.9556C5.89718 2.90123 7.32705 2.30865 8.81816 2.30809C10.3093 2.30753 11.7396 2.89904 12.7947 3.95261L15.0268 6.22528L17.2694 3.9556C17.7917 3.43326 18.4118 3.01893 19.0943 2.73624C19.7767 2.45355 20.5082 2.30806 21.2469 2.30806C21.9856 2.30806 22.717 2.45355 23.3995 2.73624C24.0819 3.01893 24.702 3.43326 25.2244 3.9556L25.6292 4.36042C26.6825 5.41618 27.274 6.84663 27.274 8.33796C27.2739 9.82929 26.6824 11.2597 25.629 12.3154Z" fill="#EE3D48"/>
</svg>
