<svg width="22" height="28" viewBox="0 0 22 28" fill="none" xmlns="http://www.w3.org/2000/svg">
<path d="M11 6.5C10.0729 6.5 9.16662 6.77492 8.39576 7.28999C7.62491 7.80506 7.0241 8.53714 6.66931 9.39367C6.31453 10.2502 6.2217 11.1927 6.40257 12.102C6.58344 13.0113 7.02988 13.8465 7.68544 14.5021C8.341 15.1576 9.17623 15.6041 10.0855 15.7849C10.9948 15.9658 11.9373 15.873 12.7938 15.5182C13.6504 15.1634 14.3824 14.5626 14.8975 13.7917C15.4126 13.0209 15.6875 12.1146 15.6875 11.1875C15.6861 9.94474 15.1918 8.75328 14.313 7.87451C13.4342 6.99574 12.2428 6.50143 11 6.5ZM11 14C10.4437 14 9.89997 13.835 9.43746 13.526C8.97495 13.217 8.61446 12.7777 8.40159 12.2638C8.18872 11.7499 8.13302 11.1844 8.24154 10.6388C8.35006 10.0932 8.61793 9.5921 9.01126 9.19876C9.4046 8.80543 9.90574 8.53756 10.4513 8.42904C10.9969 8.32052 11.5624 8.37622 12.0763 8.58909C12.5902 8.80196 13.0295 9.16245 13.3385 9.62496C13.6476 10.0875 13.8125 10.6312 13.8125 11.1875C13.8117 11.9332 13.5151 12.648 12.9878 13.1753C12.4605 13.7026 11.7457 13.9992 11 14ZM11 0.875C8.26591 0.878102 5.64468 1.96559 3.71139 3.89889C1.77809 5.83218 0.690602 8.45341 0.6875 11.1875C0.6875 14.8667 2.38789 18.7671 5.60504 22.4668C7.05276 24.1385 8.68187 25.644 10.4623 26.9555C10.6199 27.0659 10.8076 27.125 11 27.125C11.1924 27.125 11.3801 27.0659 11.5377 26.9555C13.3181 25.644 14.9472 24.1385 16.395 22.4668C19.612 18.7671 21.3125 14.8668 21.3125 11.1875C21.3094 8.45341 20.2219 5.83218 18.2886 3.89889C16.3553 1.96559 13.7341 0.878102 11 0.875ZM11 25.0133C9.06254 23.4936 2.5625 17.8943 2.5625 11.1875C2.5625 8.94974 3.45145 6.80362 5.03379 5.22129C6.61612 3.63895 8.76224 2.75 11 2.75C13.2378 2.75 15.3839 3.63895 16.9662 5.22129C18.5486 6.80362 19.4375 8.94974 19.4375 11.1875C19.4375 17.8944 12.9371 23.4939 11 25.0133Z" fill="#242424"/>
</svg>
